<?xml version="1.0" standalone="no"?><!DOCTYPE svg PUBLIC "-//W3C//DTD SVG 1.1//EN" "http://www.w3.org/Graphics/SVG/1.1/DTD/svg11.dtd"><svg t="1708676098025" class="icon" viewBox="0 0 3065 1024" version="1.1" xmlns="http://www.w3.org/2000/svg" p-id="4234" xmlns:xlink="http://www.w3.org/1999/xlink" width="598.6328125" height="200"><path d="M121.360319 196.701833h163.901195l-79.207012 499.542693h-162.493705L87.370454 416.229482l107.864733-59.567426-89.712191-60.332367zM352.158088 196.701833l-78.98263 499.542693h163.07098l63.812335-399.99847H630.922709c14.215649 0 35.221928 14.858199 35.221928 37.053705 0 14.794964-18.511554 135.777912-55.536701 362.944765h162.773164c31.978582-207.478311 49.878183-323.284143 53.696765-347.419538 5.729912-36.203092 8.31847-122.302725-99.562582-152.123155-59.679618 0.118311-184.799363 0.118311-375.353116 0zM1419.431267 196.09804l-16.502311 98.885354H1098.101291c-15.156016 0-53.366311 19.288733-53.366311 52.682965-3.033243 32.566056 18.297371 43.881052 31.134088 49.521211 80.559426-0.593594 146.901163-0.465084 184.621896 0 20.035315 0 57.384797 4.577402 85.559076 36.914996 28.172239 32.335554 31.776637 63.789896 31.776637 87.401052 0 23.611155-8.624446 76.555219-40.19302 111.10196-31.570614 34.548781-66.621195 53.403028-105.549514 61.419601-14.060622 2.582438-144.424797 3.32494-391.092525 2.219347l14.319681-100.564144h309.63149c27.562327 0 49.625243-30.675124 49.625243-57.747888 0-27.068685-17.801689-40.054311-39.866646-43.403729-29.271713 0.693546-154.354741 0-186.555665 0-32.200924 0-108.003442-35.111777-108.003442-129.213705s87.725386-162.975108 159.813354-168.613227c47.569084 1.319777 174.059602 1.119873 379.475634-0.603793zM1547.359873 196.057243h17.948557l11.708686 0.00204c164.439713 0.053036 267.288478 0.803697 308.546294 2.256064 69.815586 11.404749 112.248351 73.150725 103.723857 133.568765-8.526534 60.42008-19.46008 131.018964-37.573865 231.007872-27.227793 98.728287-106.920287 124.375203-158.405864 130.876175-15.829163 0.218263-48.527809 0.820016-81.66706 1.425849l-4.520287 0.081594c-40.676462 0.742502-80.887841 1.464606-90.248669 1.464605-15.943394-2.56-31.270757-6.168478-45.986167-10.823394l-26.75863 184.107856-173.753625 55.242964 80.471713-509.721498 109.013163-58.810645-88.812621-62.119267 13.161051-98.518183c17.522231-0.018359 34.499825-0.030598 50.932781-0.036717z m87.411251 98.828239h-3.659475c-3.871618 25.908016-19.372367 126.251857-46.502247 301.031522h165.51063c19.219378 0 42.828494-31.61345 42.828494-49.570167 7.892143-31.199363 27.14212-176.417657 33.286119-214.776861-0.150948-19.908845-14.831681-32.920988-33.286119-35.126056-2.986327 0-5.782948-0.020398-8.561211-0.055075l-1.515602-0.020399c-21.965004-0.305976-44.660271-1.482964-151.760064-1.482964zM2078.611888 196.059283h163.217849c-32.627251 210.421801-50.904223 325.095522-54.830916 344.019123-5.88698 28.388462 5.968574 47.385498 27.782629 55.838598 17.928159 2.967968 63.606311 2.967968 137.036494 0L2417.415139 196.09804h162.05922l-79.541546 500.642167h-360.278693c-42.814215-4.161275-109.139633-33.908271-118.869674-118.922709 5.046566-59.292048 24.32306-186.543426 57.827442-381.756175zM2568.398024 696.740207h163.126056c34.04902-225.320797 53.186805-345.208351 57.415394-359.660621 6.343904-21.677386 26.311904-40.211378 44.79694-40.211379h129.450327l58.984032-100.808924h-226.885355c-17.053068 0-71.061928 9.781036-111.375298 42.769339-40.31745 32.988303-49.392701 69.044526-56.58518 92.247713-4.793625 15.468112-24.435251 137.356749-58.926916 365.663872z" fill="#1C5CB0" p-id="4235"></path></svg>